<?xml version="1.0" encoding="iso-8859-1"?>
<!-- Generator: Adobe Illustrator 19.0.0, SVG Export Plug-In . SVG Version: 6.00 Build 0)  -->
<svg version="1.1" id="Layer_1" xmlns="http://www.w3.org/2000/svg" xmlns:xlink="http://www.w3.org/1999/xlink" x="0px" y="0px"
	 viewBox="0 0 511.923 511.923" style="enable-background:new 0 0 511.923 511.923;" xml:space="preserve">
<g>
	<path style="fill:#ECF0F1;" d="M448.207,248.735l-84.586-104.492c-12.2-15.069-13.365-34.878-5.508-50.697
		c-17.92-9.022-36.07-14.362-52.003-17.496l0,0c0,0-25.362-3.849-50.185-3.849c-24.832,0-50.194,3.849-50.194,3.849l0,0
		c-15.916,3.125-34.048,8.474-51.95,17.479c7.883,15.828,6.735,35.672-5.473,50.759L63.712,248.779
		c-0.468,0.574-1.05,0.936-1.554,1.457c-0.265,5.146-0.441,10.399-0.441,15.846c0,189.14,155.851,193.942,188.319,194.481
		c3.866,0.071,7.795,0.071,11.767,0c32.477-0.539,188.328-5.341,188.328-194.481c0-5.491-0.185-10.778-0.45-15.969
		C449.204,249.617,448.648,249.282,448.207,248.735"/>
	<g>
		<path style="fill:#2C2F38;" d="M369.691,151.744c-10.161-5.667-21.857-8.925-34.322-8.925c-39,0-70.621,31.62-70.621,70.621
			s31.62,70.621,70.621,70.621c39.009,0,70.621-31.62,70.621-70.621c0-7.194-1.086-14.133-3.09-20.674L369.691,151.744z"/>
		<path style="fill:#2C2F38;" d="M202.957,213.442c0,14.627-11.855,26.483-26.483,26.483c-14.627,0-26.483-11.855-26.483-26.483
			c0-14.627,11.855-26.483,26.483-26.483C191.102,186.959,202.957,198.815,202.957,213.442"/>
	</g>
	<path style="fill:#FFFFFF;" d="M361.854,213.442c0,14.627-11.855,26.483-26.483,26.483c-14.627,0-26.483-11.855-26.483-26.483
		c0-14.627,11.855-26.483,26.483-26.483C349.998,186.959,361.854,198.815,361.854,213.442"/>
	<g>
		<path style="fill:#2C2F38;" d="M255.923,434.132c-47.104,0-89.556-24.744-113.567-66.198c-2.445-4.22-1.006-9.613,3.213-12.059
			c4.228-2.454,9.613-1.006,12.058,3.213c20.824,35.937,57.565,57.388,98.295,57.388s77.471-21.451,98.295-57.388
			c2.445-4.22,7.83-5.667,12.058-3.213c4.22,2.445,5.659,7.839,3.213,12.059C345.478,409.388,303.027,434.132,255.923,434.132"/>
		<path style="fill:#2C2F38;" d="M282.405,310.545c0,9.754-11.855,17.655-26.483,17.655c-14.627,0-26.483-7.901-26.483-17.655
			c0-9.754,11.855-17.655,26.483-17.655C270.55,292.89,282.405,300.791,282.405,310.545"/>
	</g>
	<g>
		<path style="fill:#BDC3C7;" d="M22.342,240.509L5.19,182.185c-9.11-30.967-6.153-64.247,8.289-93.122l0,0
			c16.843-33.686,57.812-47.342,91.498-30.499l27.772,13.886c26.942,13.471,34.516,48.419,15.554,71.839L63.717,248.781
			C51.632,263.699,27.762,258.932,22.342,240.509"/>
		<path style="fill:#BDC3C7;" d="M489.581,240.468l17.152-58.324c9.11-30.967,6.153-64.247-8.289-93.122l0,0
			c-16.843-33.686-57.812-47.342-91.498-30.499l-27.772,13.886c-26.942,13.471-34.516,48.419-15.554,71.839l84.586,104.492
			C460.291,263.666,484.161,258.891,489.581,240.468"/>
	</g>
</g>
<g>
</g>
<g>
</g>
<g>
</g>
<g>
</g>
<g>
</g>
<g>
</g>
<g>
</g>
<g>
</g>
<g>
</g>
<g>
</g>
<g>
</g>
<g>
</g>
<g>
</g>
<g>
</g>
<g>
</g>
</svg>
